# xmcd
#
# Track frame offsets: 
#        150
#        12850
#        15193
#        32697
#        45002
#        60915
#        74868
#        88856
#        100523
#        118722
#        140699
#        153229
#        174281
#        176947
#        191289
#        206728
#        214429
#        242365
#        257110
#        291278
#
# Disc length: 4311 seconds
#
# Revision: 0
# Processed by: cddbd v1.5.2PL0 Copyright (c) Steve Scherf et al.
# Submitted via: ExactAudioCopy v0.95b3
#
DISCID=1010d514
DTITLE=John Lennon  - The Other Half Of The Sky - Disc 2
DYEAR=1900
DGENRE=
TTITLE0=Woman Audio verite'
TTITLE1=Woman Demo take 1
TTITLE2=Woman Demo new take 1
TTITLE3=Woman Demo take 9
TTITLE4=Woman Demo
TTITLE5=Woman Demo
TTITLE6=Woman Demo
TTITLE7=Woman Demo
TTITLE8=Woman Acoustic studio backing track
TTITLE9=Woman Vocal booth recording
TTITLE10=Woman Vocal booth recording
TTITLE11=Woman Vocal booth recording
TTITLE12=Woman Vocal booth recording
TTITLE13=Woman Audio verite'
TTITLE14=Woman Audio verite'
TTITLE15=Woman Alternate multitrack mixdown
TTITLE16=Woman Alternate multitrack mixdown
TTITLE17=Woman Multitrack mixdown from the movie, Imagine
TTITLE18=Walking On Thin Ice Vocal booth recordings
TTITLE19=Walking On Thin Ice Alternative multitrack mixdown
EXTD=
EXTT0=
EXTT1=
EXTT2=
EXTT3=
EXTT4=
EXTT5=
EXTT6=
EXTT7=
EXTT8=
EXTT9=
EXTT10=
EXTT11=
EXTT12=
EXTT13=
EXTT14=
EXTT15=
EXTT16=
EXTT17=
EXTT18=
EXTT19=
PLAYORDER=
